<?xml version="1.0" encoding="utf-8"?>
<!-- Generator: Adobe Illustrator 21.0.0, SVG Export Plug-In . SVG Version: 6.00 Build 0)  -->
<svg version="1.1" id="图层_1" xmlns="http://www.w3.org/2000/svg" xmlns:xlink="http://www.w3.org/1999/xlink" x="0px" y="0px"
	 viewBox="0 0 170 38" style="enable-background:new 0 0 170 38;" xml:space="preserve">
<style type="text/css">
	.st0{fill:#6C7EA0;}
	.st1{fill:#4F82FF;}
	.st2{fill:#FFFFFF;}
	.st3{fill:#B1C3DD;}
	.st4{font-family:'Thonburi';}
	.st5{font-size:12px;}
</style>
<g>
	<polygon class="st0" points="48.7,22.9 52.3,22.9 49.6,27.6 49.6,30.4 50.9,30.4 59.7,30.5 62.1,30.5 62.1,30.4 64.5,30.5 
		64.5,24.7 61.3,24.7 61.3,27.3 59.8,27.3 54.2,27.2 56.7,23 65.4,23 65.4,19.9 48.7,19.8 	"/>
	<path class="st0" d="M66.9,15.3c-3.6-1.8-5.6-3.6-8.5-6.8l-0.1-0.2l-2,0l-0.1,0.2c-2.6,2.9-4.7,4.8-8.7,6.7l-0.3,0.1L47,19.3
		l0.7-0.4c1.2-0.6,2.3-1.3,3.3-2l0,1.4l12.4,0.1l0-1.3c1,0.7,2,1.3,3.1,1.9l0.7,0.4l-0.1-3.9L66.9,15.3z M57.2,11.5
		c1.2,1.3,2.5,2.6,3.9,3.8l-7.8,0C54.8,14.1,56.1,12.9,57.2,11.5z"/>
	<polygon class="st0" points="75.6,15.4 73.8,15.3 73.9,10.8 70.7,10.8 70.6,15.3 69.1,15.3 69.1,18.4 72.5,18.4 72.5,31 75.6,31 
		75.7,15.4 75.6,15.4 	"/>
	<path class="st0" d="M90.4,11.5l0.6-0.2l-1.5-2.7L89,8.8c-3.2,1-7.1,1.4-11.7,1.4l-0.7,0l0.9,2.9l0.3,0c1.6,0,3.1,0,4.5-0.1l0,2.1
		l-5.5,0l0,3.1l13.7,0.1l0-3.1l-5.1,0l0-2.5C87.4,12.3,89,12,90.4,11.5z"/>
	<path class="st0" d="M101.8,22.3c-0.7-0.9-1.2-1.2-1.7-1.7c-0.3-0.2-0.6-0.5-0.9-0.8l0-0.5l2.6,0l0-2.3l-2.6,0l0-7.9l-2.4,0l0,7.9
		l-3.1,0l0,2.3l2.9,0c-0.7,2-1.9,3.3-3.4,4.8l0,0l0,3.4l0.3-0.3c1.6-1.5,2.7-2.9,3.4-4.2l0,8.1l2.4,0l0-8.3c0.3,0.4,0.7,0.7,1.1,1.1
		c0.5,0.5,1,0.9,1.3,1.3l0.3,0.4L101.8,22.3L101.8,22.3z"/>
	<path class="st0" d="M94.5,16.2l0.1,0.3l2.1-0.5l0-0.3c-0.2-1.7-0.5-3.4-0.9-4.8l-0.1-0.3l-2.2,0.7l0.1,0.3
		C93.9,13,94.2,14.5,94.5,16.2z"/>
	<path class="st0" d="M100.2,10.7c-0.1,1.8-0.4,3.4-0.8,4.8l-0.1,0.3l2,0.7l0.1-0.3c0.6-1.5,0.9-3.3,1.1-5.2l0-0.3l-2.2-0.3
		L100.2,10.7z"/>
	<polygon class="st0" points="114.1,16 109.6,16 109.6,15.5 114.1,15.5 114.2,13.1 109.6,13.1 109.6,12.6 114.2,12.6 114.2,10.2 
		109.6,10.2 109.6,8.8 106.9,8.8 106.9,10.2 102.7,10.2 102.7,12.6 106.8,12.6 106.8,13.1 102.7,13 102.7,15.4 106.8,15.4 
		106.8,15.9 102.6,15.9 102.5,18.4 114,18.4 	"/>
	<path class="st0" d="M137.3,28.1c-5-1-8.1-3-9.3-5.8c0.1-0.8,0.2-1.6,0.2-2.5l0-0.1l6.6,0l0.1-10.2l-16.7-0.1l0,2.9l13.5,0.1l0,0.8
		l-13.5-0.1l0,2.8l13.5,0.1l0,0.7L118,16.7l0,2.9l7,0l0,0.1c0,1.3-0.2,2.3-0.4,2.9c-0.9,2.5-3.7,4.3-8.3,5.3l-0.6,0.1l1.3,2.9
		l0.4-0.1c4.4-1.1,7.5-2.9,9.1-5.2c1.6,2.4,4.8,4.2,9.6,5.3l0.4,0.1l1.3-2.9L137.3,28.1z"/>
	<path class="st0" d="M89.9,20.2l-1.5,0l-0.4,0L79,20.2l0,2.1l-2.1,0l0,0.4c0.3,2,1.2,3.9,2.6,5.3c1.7,1.8,4,2.7,6.5,2.7
		c0.7,0,1.5-0.1,2.2-0.2c0.6,0.2,1.1,0.5,1.5,1c0.1,0.1,0.2,0.2,0.3,0.2c0,0,0.1,0,0.1,0c0.2-0.1,0.3-0.2,0.3-0.4l0-2.1l0-8.5l0-0.4
		l-0.4,0L89.9,20.2z M87.9,27.8c-0.6,0.2-1.2,0.2-1.8,0.2c-3.1,0-5.7-2.2-6.4-5.2l8.2,0L87.9,27.8z"/>
	<polygon class="st0" points="111,19.3 105.9,19.2 103.3,19.2 102.7,19.2 102.6,31.3 105.8,31.4 105.9,22.1 111,22.1 110.9,31.4 
		114.1,31.4 114.2,19.3 113.5,19.3 	"/>
	
		<rect x="118.2" y="21.3" transform="matrix(5.733983e-03 -1 1 5.733983e-03 97.0882 143.1907)" class="st0" width="4.7" height="2.9"/>
	
		<rect x="130" y="21.2" transform="matrix(5.733983e-03 -1 1 5.733983e-03 109.0077 154.8325)" class="st0" width="4.7" height="2.9"/>
	
		<rect x="106" y="23.9" transform="matrix(5.733983e-03 -1 1 5.733983e-03 82.3839 133.4737)" class="st0" width="4.7" height="2.9"/>
</g>
<circle class="st1" cx="19" cy="19.3" r="19"/>
<path class="st2" d="M31.1,26.7c0,0-1.2,0.7-2.8,0.4c-1.7-0.4-2.6-2.3-2.6-2.3L25.5,25c0,0,0,0,0,0c0,0,0,0,0,0L25.4,25
	c-1.5,1.1-3.7,2.1-5.8,2.2c-2.7,0.1-5.1-0.6-7-2.5c-2-1.9-3-4.4-3-7.1v-5c0.3,0,0.8,0,0.8,0h3.4v3.7c0,1,0.8,1.9,1.9,1.9
	s1.9-0.8,1.9-1.9v-3.7h2.4v3.7c0,1,0.8,1.9,1.9,1.9s1.9-0.8,1.9-1.9v-3.7h0.8c2,0,3,1.1,3.7,2.7c0.2,0.4,0.3,0.9,0.3,1.3l0,5.4
	c0,1.4,0.1,2.7,2.7,3c0,0,0.3,0,0.3,0c0,0,0-2.6,0-3l0-5.9C31.3,12.9,29,10,25.5,10H10.4c0,0-1,0-1,0v2.6h-3v5
	c0,3.4,1.3,6.6,3.6,9.1c2.3,2.5,5.3,3.7,8.6,3.8c0.2,0,0.4,0,0.6,0c2.8-0.2,4.6-0.8,6.3-1.7c0.4,0.3,1.5,0.9,2.7,0.9
	c0.4,0,0.8-0.1,1.1-0.2c1.8-0.6,2-2.4,2-2.5l0.1-0.5L31.1,26.7z"/>
<text transform="matrix(1 0 0 1 139 18.6665)" class="st3 st4 st5">BETA</text>
</svg>
